nColumns=19
nRows=91
DataType=double
version=3
OpenSimVersion=4.1
endheader
time	ground_force_calcn_r_vx	ground_force_calcn_r_vy	ground_force_calcn_r_vz	ground_force_calcn_r_px	ground_force_calcn_r_py	ground_force_calcn_r_pz	ground_force_calcn_r_mx	ground_force_calcn_r_my	ground_force_calcn_r_mz	ground_force_calcn_l_vx	ground_force_calcn_l_vy	ground_force_calcn_l_vz	ground_force_calcn_l_px	ground_force_calcn_l_py	ground_force_calcn_l_pz	ground_force_calcn_l_mx	ground_force_calcn_l_my	ground_force_calcn_l_mz
0	-42.8374	383.151	20.464	0.0795309	0	-0.220018	0.0704126	-0.629791	-0.033637	0	0	0	0	0	0	0	0	0
0.01	-56.6091	424.053	17.3966	0.0854088	0	-0.218653	0.105601	-0.791047	-0.0324523	0	0	0	0	0	0	0	0	0
0.02	-71.1848	469.438	13.3285	0.0921927	0	-0.216979	0.146888	-0.96867	-0.0275029	0	0	0	0	0	0	0	0	0
0.03	-86.0784	518.336	8.23258	0.098756	0	-0.21525	0.191272	-1.15178	-0.0182933	0	0	0	0	0	0	0	0	0
0.04	-100.82	569.657	2.2041	0.105045	0	-0.213516	0.234736	-1.32632	-0.00513175	0	0	0	0	0	0	0	0	0
0.05	-114.973	622.336	-4.54811	0.111039	0	-0.211821	0.272768	-1.47646	0.0107902	0	0	0	0	0	0	0	0	0
0.06	-128.139	675.429	-11.7578	0.116731	0	-0.210202	0.301394	-1.58867	0.0276554	0	0	0	0	0	0	0	0	0
0.07	-139.979	728.117	-19.1534	0.122123	0	-0.208683	0.318248	-1.65541	0.0435462	0	0	0	0	0	0	0	0	0
0.08	-150.238	779.63	-26.4634	0.127227	0	-0.207278	0.322665	-1.67441	0.0568353	0	0	0	0	0	0	0	0	0
0.09	-158.721	829.135	-33.3942	0.132055	0	-0.205993	0.315061	-1.64583	0.0662873	0	0	0	0	0	0	0	0	0
0.1	-165.276	875.663	-39.651	0.136626	0	-0.20483	0.29693	-1.57319	0.0712358	0	0	0	0	0	0	0	0	0
0.11	-169.807	918.135	-45.0044	0.140972	0	-0.203777	0.271164	-1.46617	0.0718676	0	0	0	0	0	0	0	0	0
0.12	-172.29	955.438	-49.3336	0.145128	0	-0.202816	0.2415	-1.33924	0.069151	0	0	0	0	0	0	0	0	0
0.13	-172.784	986.539	-52.6248	0.149143	0	-0.201919	0.21153	-1.20776	0.0644256	0	0	0	0	0	0	0	0	0
0.14	-171.412	1010.59	-54.9485	0.153069	0	-0.201059	0.184139	-1.08563	0.0590284	0	0	0	0	0	0	0	0	0
0.15	-168.348	1027.03	-56.4211	0.156956	0	-0.200211	0.161255	-0.983758	0.0540439	0	0	0	0	0	0	0	0	0
0.16	-163.798	1035.58	-57.1685	0.160857	0	-0.199352	0.143862	-0.909535	0.0502105	0	0	0	0	0	0	0	0	0
0.17	-157.993	1036.28	-57.3092	0.164819	0	-0.198464	0.132133	-0.866666	0.0479289	0	0	0	0	0	0	0	0	0
0.18	-151.174	1029.5	-56.949	0.168883	0	-0.197533	0.12557	-0.855142	0.0473039	0	0	0	0	0	0	0	0	0
0.19	-143.583	1015.83	-56.1778	0.173091	0	-0.19655	0.123262	-0.872059	0.0482269	0	0	0	0	0	0	0	0	0
0.2	-135.452	996.075	-55.068	0.17747	0	-0.195511	0.124149	-0.912958	0.0504729	0	0	0	0	0	0	0	0	0
0.21	-126.992	971.201	-53.6773	0.182041	0	-0.194414	0.127233	-0.973038	0.0537789	0	0	0	0	0	0	0	0	0
0.22	-118.398	942.29	-52.0551	0.186816	0	-0.193265	0.131665	-1.04789	0.0578885	0	0	0	0	0	0	0	0	0
0.23	-109.837	910.49	-50.2488	0.191792	0	-0.192073	0.13679	-1.13392	0.0625794	0	0	0	0	0	0	0	0	0
0.24	-101.455	876.958	-48.306	0.196955	0	-0.190848	0.142141	-1.22865	0.0676783	0	0	0	0	0	0	0	0	0
0.25	-93.3674	842.821	-46.2724	0.202279	0	-0.18961	0.147445	-1.33097	0.0730728	0	0	0	0	0	0	0	0	0
0.26	-85.6629	809.127	-44.1903	0.207722	0	-0.188379	0.152601	-1.44139	0.0787212	0	0	0	0	0	0	0	0	0
0.27	-78.3977	776.816	-42.0992	0.213225	0	-0.187178	0.157632	-1.56192	0.0846476	0	0	0	0	0	0	0	0	0
0.28	-71.5965	746.694	-40.0386	0.218714	0	-0.186033	0.162584	-1.69562	0.0909211	0	0	0	0	0	0	0	0	0
0.29	-65.2523	719.43	-38.053	0.224102	0	-0.18497	0.167422	-1.84589	0.0976351	0	0	0	0	0	0	0	0	0
0.3	-59.326	695.559	-36.1937	0.229293	0	-0.18401	0.171914	-2.01558	0.104882	0	0	0	0	0	0	0	0	0
0.31	-53.7485	675.497	-34.5195	0.234188	0	-0.183167	0.175546	-2.20621	0.112743	0	0	0	0	0	0	0	0	0
0.32	-48.4246	659.562	-33.094	0.238695	0	-0.182457	0.177508	-2.41773	0.121311	0	0	0	0	0	0	0	0	0
0.33	-43.2386	647.991	-31.9804	0.242734	0	-0.18188	0.176738	-2.64867	0.13072	0	0	0	0	0	0	0	0	0
0.34	-38.0596	640.962	-31.2356	0.246252	0	-0.181435	0.171995	-2.89658	0.141157	0	0	0	0	0	0	0	0	0
0.35	-32.7499	638.607	-30.9044	0.249223	0	-0.181114	0.161977	-3.15847	0.152849	0	0	0	0	0	0	0	0	0
0.36	-27.1732	641.025	-31.016	0.251653	0	-0.180902	0.145462	-3.43149	0.166033	0	0	0	0	0	0	0	0	0
0.37	-21.2011	648.282	-31.5829	0.253581	0	-0.180784	0.121432	-3.71311	0.180894	0	0	0	0	0	0	0	0	0
0.38	-14.7197	660.405	-32.6015	0.255075	0	-0.180746	0.089178	-4.001	0.197513	0	0	0	0	0	0	0	0	0
0.39	-7.63727	677.356	-34.0542	0.256221	0	-0.18077	0.0483992	-4.29257	0.21581	0	0	0	0	0	0	0	0	0
0.4	0.10889	699.014	-35.9116	0.25712	0	-0.180844	-0.000714112	-4.58421	0.235512	0	0	0	0	0	0	0	0	0
0.41	8.54972	725.14	-38.1347	0.257873	0	-0.180954	-0.0574278	-4.87071	0.256148	0	0	0	0	0	0	0	0	0
0.42	17.6861	755.346	-40.6749	0.258572	0	-0.181091	-0.120466	-5.1449	0.27705	0	0	0	0	0	0	0	0	0
0.43	27.4931	789.06	-43.4718	0.259294	0	-0.181249	-0.188075	-5.39782	0.297383	0	0	0	0	0	0	0	0	0
0.44	37.9283	825.504	-46.4507	0.260098	0	-0.181422	-0.258175	-5.61915	0.316187	0	0	0	0	0	0	0	0	0
0.45	48.9423	863.704	-49.5208	0.261018	0	-0.181609	-0.32854	-5.79787	0.332423	0	0	0	0	0	0	0	0	0
0.46	60.4867	902.516	-52.5756	0.262076	0	-0.181808	-0.396975	-5.92322	0.345054	0	0	0	0	0	0	0	0	0
0.47	72.5136	940.673	-55.4937	0.263272	0	-0.182024	-0.461442	-5.98599	0.353135	0	0	0	0	0	0	0	0	0
0.48	84.9648	976.825	-58.1446	0.2646	0	-0.182255	-0.520109	-5.9796	0.35593	0	0	0	0	0	0	0	0	0
0.49	97.755	1009.58	-60.3958	0.266045	0	-0.18251	-0.571354	-5.90077	0.352999	0	0	0	0	0	0	0	0	0
0.5	110.758	1037.57	-62.1218	0.267589	0	-0.182787	-0.613792	-5.74989	0.344261	0	0	0	0	0	0	0	0	0
0.51	123.8	1059.41	-63.2101	0.269215	0	-0.18309	-0.646385	-5.53139	0.330032	0	0	0	0	0	0	0	0	0
0.52	136.648	1073.83	-63.5644	0.270908	0	-0.183418	-0.668606	-5.25416	0.311015	10.5719	28.4541	-7.15696	0.683485	0	-0.31367	0.0185946	0.050047	-0.0125882
0.53	149.002	1079.64	-63.106	0.272654	0	-0.183773	-0.680568	-4.93124	0.288237	9.85448	50.1238	-7.81919	0.73514	0	-0.327276	0.0390926	0.19884	-0.0310186
0.54	160.497	1075.81	-61.7773	0.274445	0	-0.184149	-0.683058	-4.57851	0.262918	7.97386	77.0851	-8.31394	0.761276	0	-0.334155	0.0311377	0.301014	-0.0324656
0.55	170.705	1061.52	-59.5489	0.276273	0	-0.184548	-0.677434	-4.21258	0.236316	4.57597	109.564	-8.53189	0.777816	0	-0.338151	0.0164631	0.39418	-0.0306954
0.56	179.16	1036.24	-56.4284	0.278136	0	-0.184964	-0.66539	-3.84852	0.209571	-0.721832	147.474	-8.33878	0.789809	0	-0.340741	-0.00242827	0.496109	-0.028052
0.57	185.387	999.759	-52.4679	0.280034	0	-0.185397	-0.648676	-3.4982	0.183587	-8.20528	190.405	-7.57754	0.79939	0	-0.342584	-0.0266031	0.617332	-0.0245679
0.58	188.935	952.277	-47.7668	0.281972	0	-0.18584	-0.628838	-3.16948	0.158983	-17.8322	237.811	-6.07829	0.807599	0	-0.344015	-0.0573647	0.76502	-0.0195534
0.59	189.424	894.445	-42.4725	0.283956	0	-0.186291	-0.607017	-2.86628	0.136105	-29.2149	289.219	-3.68674	0.814963	0	-0.345205	-0.0949654	0.94013	-0.0119841
0.6	186.577	827.405	-36.7734	0.285998	0	-0.186742	-0.583771	-2.58882	0.115058	-41.8327	344.19	-0.309864	0.821748	0	-0.346237	-0.137951	1.13503	-0.00102184
0.61	180.273	752.779	-30.8902	0.288114	0	-0.18719	-0.558963	-2.33411	0.0957798	-55.1915	402.17	4.04463	0.828093	0	-0.347143	-0.183196	1.33492	0.0134253
0.62	170.591	672.605	-25.0616	0.290324	0	-0.18763	-0.531855	-2.097	0.0781351	-68.8501	462.443	9.26241	0.834069	0	-0.34793	-0.226559	1.52172	0.0304789
0.63	157.85	589.236	-19.5257	0.292656	0	-0.188057	-0.501389	-1.87163	0.0620207	-82.3662	524.164	15.1365	0.839707	0	-0.348595	-0.26379	1.67871	0.0484767
0.64	142.604	505.192	-14.4936	0.29515	0	-0.188468	-0.466607	-1.65301	0.0474236	-95.2793	586.374	21.4006	0.845014	0	-0.349139	-0.29156	1.79434	0.0654872
0.65	125.609	422.983	-10.1189	0.297859	0	-0.188863	-0.427155	-1.43843	0.0344112	-107.149	647.996	27.7804	0.849994	0	-0.349566	-0.308277	1.86433	0.0799263
0.66	107.74	344.912	-6.4769	0.300869	0	-0.189248	-0.383683	-1.22829	0.0230654	-117.616	707.892	34.0404	0.854665	0	-0.349889	-0.314274	1.89151	0.090957
0.67	89.874	272.895	-3.56502	0.304324	0	-0.189635	-0.337862	-1.02589	0.0134019	-126.433	764.924	39.9867	0.859059	0	-0.350129	-0.311067	1.88196	0.0983805
0.68	72.7637	208.354	-1.32503	0.308487	0	-0.190046	-0.292036	-0.836224	0.005318	-133.441	817.994	45.4449	0.863218	0	-0.350302	-0.300513	1.84215	0.102343
0.69	56.9801	152.171	0.329518	0.313872	0	-0.190524	-0.248944	-0.664829	-0.00143966	-138.551	866.069	50.2629	0.867188	0	-0.350423	-0.284692	1.77958	0.103279
0.7	42.9037	104.69	1.4913	0.321576	0	-0.191163	-0.21192	-0.517108	-0.0073662	-141.745	908.202	54.3241	0.871019	0	-0.350509	-0.265912	1.70378	0.101912
0.71	30.7414	65.7736	2.24972	0.334389	0	-0.192244	-0.186582	-0.399206	-0.0136544	-143.066	943.55	57.5515	0.874762	0	-0.35057	-0.246358	1.62478	0.0991031
0.72	20.5547	34.906	2.68709	0.3621	0	-0.195152	-0.189454	-0.32173	-0.024767	-142.617	971.431	59.9157	0.878469	0	-0.350622	-0.227827	1.55184	0.0957138
0.73	0	0	0	0	0	0	0	0	0	-140.559	991.391	61.4444	0.882191	0	-0.350672	-0.211626	1.49264	0.0925109
0.74	0	0	0	0	0	0	0	0	0	-137.095	1003.25	62.2093	0.885977	0	-0.350734	-0.198443	1.45219	0.0900467
0.75	0	0	0	0	0	0	0	0	0	-132.45	1007.13	62.3048	0.889873	0	-0.350812	-0.188374	1.43237	0.0886119
0.76	0	0	0	0	0	0	0	0	0	-126.853	1003.43	61.8312	0.893918	0	-0.350912	-0.181086	1.43242	0.0882655
0.77	0	0	0	0	0	0	0	0	0	-120.538	992.798	60.8803	0.898144	0	-0.351035	-0.176042	1.44994	0.0889132
0.78	0	0	0	0	0	0	0	0	0	-113.726	976.132	59.5285	0.90258	0	-0.351179	-0.172691	1.48225	0.0903934
0.79	0	0	0	0	0	0	0	0	0	-106.613	954.512	57.8381	0.907243	0	-0.351339	-0.170598	1.52738	0.0925504
0.8	0	0	0	0	0	0	0	0	0	-99.3707	929.15	55.8646	0.912139	0	-0.351509	-0.169467	1.58458	0.0952718
0.81	0	0	0	0	0	0	0	0	0	-92.1434	901.306	53.6643	0.917257	0	-0.351681	-0.169126	1.65431	0.0984988
0.82	0	0	0	0	0	0	0	0	0	-85.0443	872.213	51.2985	0.922574	0	-0.351844	-0.169454	1.73792	0.102214
0.83	0	0	0	0	0	0	0	0	0	-78.1564	843.019	48.8346	0.928046	0	-0.35199	-0.170323	1.83716	0.106423
0.84	0	0	0	0	0	0	0	0	0	-71.5342	814.742	46.3476	0.933617	0	-0.352111	-0.171513	1.95345	0.111124
0.85	0	0	0	0	0	0	0	0	0	-65.2063	788.241	43.9191	0.939213	0	-0.352198	-0.172665	2.08725	0.116297
0.86	0	0	0	0	0	0	0	0	0	-59.1777	764.206	41.6323	0.944755	0	-0.352248	-0.173287	2.23779	0.12191
0.87	0	0	0	0	0	0	0	0	0	-53.4314	743.161	39.566	0.950158	0	-0.352254	-0.17277	2.40301	0.127937
0.88	0	0	0	0	0	0	0	0	0	-47.9295	725.473	37.7881	0.955336	0	-0.352212	-0.170444	2.57988	0.134379
0.89	0	0	0	0	0	0	0	0	0	-42.6163	711.374	36.3519	0.96022	0	-0.35212	-0.16564	2.76495	0.141291
0.9	0	0	0	0	0	0	0	0	0	-37.4206	700.978	35.2956	0.964748	0	-0.351976	-0.157733	2.95472	0.148776
